<?xml version="1.0" encoding="UTF-8" standalone="no"?>
<!DOCTYPE svg PUBLIC "-//W3C//DTD SVG 1.1//EN"
 "http://www.w3.org/Graphics/SVG/1.1/DTD/svg11.dtd">
<!-- Generated by graphviz version 2.43.0 (0)
 -->
<!-- Title: %3 Pages: 1 -->
<svg width="346pt" height="44pt"
 viewBox="0.00 0.00 346.02 44.00" xmlns="http://www.w3.org/2000/svg" xmlns:xlink="http://www.w3.org/1999/xlink">
<g id="graph0" class="graph" transform="scale(1 1) rotate(0) translate(4 40)">
<title>%3</title>
<polygon fill="white" stroke="transparent" points="-4,4 -4,-40 342.02,-40 342.02,4 -4,4"/>
<!-- Forwarder -->
<g id="node1" class="node">
<title>Forwarder</title>
<polygon fill="none" stroke="black" points="217.13,-36 142.51,-36 142.51,0 217.13,0 217.13,-36"/>
<text text-anchor="middle" x="179.82" y="-13.8" font-family="Times,serif" font-size="14.00">Forwarder</text>
</g>
<!-- upstream -->
<g id="node3" class="node">
<title>upstream</title>
<ellipse fill="none" stroke="black" cx="295.5" cy="-18" rx="42.55" ry="18"/>
<text text-anchor="middle" x="295.5" y="-13.8" font-family="Times,serif" font-size="14.00">upstream</text>
</g>
<!-- Forwarder&#45;&gt;upstream -->
<g id="edge2" class="edge">
<title>Forwarder&#45;&gt;upstream</title>
<path fill="none" stroke="black" d="M217.1,-18C225.22,-18 234,-18 242.62,-18"/>
<polygon fill="black" stroke="black" points="242.62,-21.5 252.62,-18 242.62,-14.5 242.62,-21.5"/>
</g>
<!-- downstream -->
<g id="node2" class="node">
<title>downstream</title>
<ellipse fill="none" stroke="black" cx="53.33" cy="-18" rx="53.16" ry="18"/>
<text text-anchor="middle" x="53.33" y="-13.8" font-family="Times,serif" font-size="14.00">downstream</text>
</g>
<!-- downstream&#45;&gt;Forwarder -->
<g id="edge1" class="edge">
<title>downstream&#45;&gt;Forwarder</title>
<path fill="none" stroke="black" d="M106.76,-18C115.17,-18 123.83,-18 132.09,-18"/>
<polygon fill="black" stroke="black" points="132.31,-21.5 142.31,-18 132.31,-14.5 132.31,-21.5"/>
</g>
</g>
</svg>
