<?xml version="1.0" encoding="UTF-8" standalone="no"?>
<!DOCTYPE svg PUBLIC "-//W3C//DTD SVG 1.1//EN"
 "http://www.w3.org/Graphics/SVG/1.1/DTD/svg11.dtd">
<!-- Generated by graphviz version 2.43.0 (0)
 -->
<!-- Title: %3 Pages: 1 -->
<svg width="766pt" height="44pt"
 viewBox="0.00 0.00 765.55 44.00" xmlns="http://www.w3.org/2000/svg" xmlns:xlink="http://www.w3.org/1999/xlink">
<g id="graph0" class="graph" transform="scale(1 1) rotate(0) translate(4 40)">
<title>%3</title>
<polygon fill="white" stroke="transparent" points="-4,4 -4,-40 761.55,-40 761.55,4 -4,4"/>
<!-- Client -->
<g id="node1" class="node">
<title>Client</title>
<ellipse fill="none" stroke="black" cx="31.72" cy="-18" rx="31.95" ry="18"/>
<text text-anchor="middle" x="31.72" y="-13.8" font-family="Times,serif" font-size="14.00">Client</text>
</g>
<!-- ProtocolBinding -->
<g id="node2" class="node">
<title>ProtocolBinding</title>
<ellipse fill="none" stroke="black" cx="210" cy="-18" rx="68.65" ry="18"/>
<text text-anchor="middle" x="210" y="-13.8" font-family="Times,serif" font-size="14.00">ProtocolBinding</text>
</g>
<!-- Client&#45;&gt;ProtocolBinding -->
<g id="edge1" class="edge">
<title>Client&#45;&gt;ProtocolBinding</title>
<path fill="none" stroke="black" d="M63.83,-18C82.6,-18 107.41,-18 131.2,-18"/>
<polygon fill="black" stroke="black" points="131.32,-21.5 141.32,-18 131.32,-14.5 131.32,-21.5"/>
<text text-anchor="middle" x="102.44" y="-20.8" font-family="Times,serif" font-size="14.00">[Event]</text>
</g>
<!-- ProtocolBindingImpl -->
<g id="node3" class="node">
<title>ProtocolBindingImpl</title>
<ellipse fill="none" stroke="black" cx="497.82" cy="-18" rx="85.05" ry="18"/>
<text text-anchor="middle" x="497.82" y="-13.8" font-family="Times,serif" font-size="14.00">ProtocolBindingImpl</text>
</g>
<!-- ProtocolBinding&#45;&gt;ProtocolBindingImpl -->
<g id="edge2" class="edge">
<title>ProtocolBinding&#45;&gt;ProtocolBindingImpl</title>
<path fill="none" stroke="black" d="M278.73,-18C315.64,-18 361.89,-18 402.29,-18"/>
<polygon fill="black" stroke="black" points="402.43,-21.5 412.43,-18 402.43,-14.5 402.43,-21.5"/>
<text text-anchor="middle" x="345.56" y="-20.8" font-family="Times,serif" font-size="14.00">[Event, Message]</text>
</g>
<!-- Protocol -->
<g id="node4" class="node">
<title>Protocol</title>
<ellipse fill="none" stroke="black" cx="717.48" cy="-18" rx="40.15" ry="18"/>
<text text-anchor="middle" x="717.48" y="-13.8" font-family="Times,serif" font-size="14.00">Protocol</text>
</g>
<!-- ProtocolBindingImpl&#45;&gt;Protocol -->
<g id="edge3" class="edge">
<title>ProtocolBindingImpl&#45;&gt;Protocol</title>
<path fill="none" stroke="black" d="M583.28,-18C611.62,-18 642.28,-18 667.03,-18"/>
<polygon fill="black" stroke="black" points="667.25,-21.5 677.25,-18 667.25,-14.5 667.25,-21.5"/>
<text text-anchor="middle" x="630.25" y="-20.8" font-family="Times,serif" font-size="14.00">[Message]</text>
</g>
</g>
</svg>
